<svg xmlns="http://www.w3.org/2000/svg" width="708" height="556" fill="none" viewBox="0 0 708 556"><g clip-path="url(#clip0_7_3)"><path fill="#F0F0F0" d="M644.465 507.448C630.893 521.98 615.341 534.526 598.269 544.719C597.877 544.96 597.479 545.186 597.079 545.419L569.44 520.957C569.731 520.687 570.052 520.384 570.399 520.052C590.992 500.497 693.229 363.772 700.042 330.477C699.572 333.251 706.189 442.028 644.465 507.448Z"/><path fill="#F0F0F0" d="M603.602 549.439C603.079 549.564 602.547 549.68 602.014 549.787L581.279 531.434C581.684 531.293 582.157 531.125 582.699 530.939C591.596 527.788 618.093 518.278 644.463 507.447C672.798 495.803 700.996 482.647 707.061 474.22C705.76 476.178 665.686 535.556 603.602 549.439Z"/><path fill="#3F3D56" d="M644.082 145.58H641.129V64.6865C641.129 58.5381 639.918 52.45 637.565 46.7696C635.212 41.0893 631.764 35.928 627.416 31.5804C623.068 27.2329 617.907 23.7842 612.227 21.4313C606.546 19.0784 600.458 17.8674 594.31 17.8674H422.926C416.777 17.8674 410.689 19.0784 405.009 21.4313C399.329 23.7841 394.167 27.2328 389.82 31.5803C385.472 35.9279 382.023 41.0891 379.671 46.7695C377.318 52.4498 376.107 58.538 376.107 64.6863V508.475C376.107 514.624 377.318 520.712 379.671 526.392C382.023 532.072 385.472 537.234 389.82 541.581C394.167 545.929 399.328 549.377 405.009 551.73C410.689 554.083 416.777 555.294 422.926 555.294H594.31C600.458 555.294 606.546 554.083 612.227 551.73C617.907 549.378 623.068 545.929 627.416 541.581C631.763 537.234 635.212 532.073 637.565 526.392C639.918 520.712 641.129 514.624 641.129 508.475V203.162H644.082V145.58Z"/><path fill="#fff" d="M631.163 65.0081V508.151C631.163 512.743 630.258 517.289 628.501 521.531C626.743 525.773 624.167 529.627 620.92 532.874C617.672 536.12 613.817 538.694 609.575 540.45C605.332 542.206 600.785 543.109 596.193 543.108H423.984C419.394 543.108 414.848 542.204 410.606 540.447C406.365 538.691 402.511 536.116 399.265 532.87C396.019 529.624 393.444 525.77 391.688 521.529C389.931 517.287 389.027 512.742 389.027 508.151V65.0081C389.027 60.4174 389.931 55.8716 391.688 51.6303C393.444 47.389 396.019 43.5353 399.265 40.2892C402.511 37.0431 406.365 34.4682 410.606 32.7116C414.848 30.955 419.394 30.051 423.984 30.0514H444.883C443.857 32.5737 443.466 35.3096 443.746 38.0182C444.026 40.7268 444.966 43.3252 446.486 45.5849C448.005 47.8446 450.056 49.6964 452.459 50.9774C454.862 52.2583 457.543 52.9292 460.266 52.931H558.448C561.172 52.9336 563.855 52.2655 566.261 50.9858C568.666 49.7061 570.72 47.854 572.24 45.593C573.76 43.332 574.701 40.7315 574.978 38.0211C575.256 35.3107 574.862 32.5736 573.832 30.0514H596.193C600.785 30.0497 605.332 30.9527 609.575 32.7087C613.817 34.4646 617.672 37.0393 620.92 40.2855C624.167 43.5317 626.743 47.3858 628.501 51.6278C630.258 55.8698 631.163 60.4165 631.163 65.0081Z"/><path fill="#F0F0F0" d="M577.595 295.289H426.228C423.577 295.286 421.035 294.231 419.16 292.357C417.285 290.482 416.231 287.94 416.228 285.289V280.311C416.231 277.66 417.285 275.118 419.16 273.243C421.035 271.369 423.577 270.314 426.228 270.311H577.595C580.246 270.314 582.788 271.369 584.662 273.243C586.537 275.118 587.592 277.66 587.595 280.311V285.289C587.592 287.94 586.537 290.482 584.662 292.357C582.788 294.231 580.246 295.286 577.595 295.289Z"/><path fill="#F0F0F0" d="M577.595 338.196H426.228C423.577 338.193 421.035 337.139 419.16 335.264C417.285 333.389 416.231 330.847 416.228 328.196V323.219C416.231 320.567 417.285 318.025 419.16 316.151C421.035 314.276 423.577 313.221 426.228 313.219H577.595C580.246 313.221 582.788 314.276 584.662 316.151C586.537 318.025 587.592 320.567 587.595 323.219V328.196C587.592 330.847 586.537 333.389 584.662 335.264C582.788 337.139 580.246 338.193 577.595 338.196Z"/><path fill="#3F3D56" d="M585.166 285.693H433.8C431.016 285.689 428.347 284.582 426.379 282.614C424.41 280.645 423.303 277.976 423.3 275.193V270.215C423.303 267.431 424.41 264.762 426.379 262.794C428.347 260.826 431.016 259.718 433.8 259.715H585.166C587.95 259.718 590.619 260.826 592.587 262.794C594.556 264.762 595.663 267.431 595.666 270.215V275.193C595.663 277.976 594.556 280.645 592.587 282.614C590.619 284.582 587.95 285.689 585.166 285.693ZM433.8 261.715C431.546 261.718 429.386 262.614 427.792 264.207C426.199 265.801 425.302 267.962 425.3 270.215V275.193C425.302 277.446 426.199 279.607 427.792 281.2C429.386 282.794 431.546 283.69 433.8 283.693H585.166C587.42 283.69 589.58 282.794 591.174 281.2C592.768 279.607 593.664 277.446 593.666 275.193V270.215C593.664 267.962 592.768 265.801 591.174 264.207C589.58 262.614 587.42 261.718 585.166 261.715H433.8Z"/><path fill="#3F3D56" d="M585.166 328.6H433.8C431.016 328.597 428.347 327.489 426.379 325.521C424.41 323.553 423.303 320.884 423.3 318.1V313.122C423.303 310.339 424.41 307.67 426.379 305.701C428.347 303.733 431.016 302.625 433.8 302.622H585.166C587.95 302.625 590.619 303.733 592.587 305.701C594.556 307.67 595.663 310.339 595.666 313.122V318.1C595.663 320.884 594.556 323.553 592.587 325.521C590.619 327.489 587.95 328.597 585.166 328.6ZM433.8 304.622C431.546 304.625 429.386 305.521 427.792 307.115C426.199 308.708 425.302 310.869 425.3 313.122V318.1C425.302 320.353 426.199 322.514 427.792 324.107C429.386 325.701 431.546 326.597 433.8 326.6H585.166C587.42 326.597 589.58 325.701 591.174 324.107C592.768 322.514 593.664 320.353 593.666 318.1V313.122C593.664 310.869 592.768 308.708 591.174 307.115C589.58 305.521 587.42 304.625 585.166 304.622H433.8Z"/><path fill="#F0F0F0" d="M631.163 65.0081V161.398C615.847 165.427 599.811 165.89 584.288 162.749C568.765 159.609 554.17 152.949 541.625 143.283C529.08 133.617 518.919 121.202 511.925 106.993C504.931 92.7843 501.289 77.1603 501.28 61.3232C501.28 58.4963 501.394 55.699 501.621 52.931H558.448C561.172 52.9336 563.855 52.2655 566.261 50.9858C568.666 49.7061 570.72 47.854 572.24 45.593C573.76 43.332 574.701 40.7315 574.978 38.0211C575.256 35.3107 574.862 32.5736 573.832 30.0514H596.193C600.785 30.0497 605.332 30.9527 609.575 32.7087C613.817 34.4646 617.672 37.0393 620.92 40.2855C624.167 43.5317 626.743 47.3858 628.501 51.6278C630.258 55.8698 631.163 60.4165 631.163 65.0081Z"/><path fill="#7F0000" d="M476.041 537.088C476.041 539.12 475.965 541.126 475.801 543.108H423.984C419.394 543.108 414.848 542.204 410.606 540.447C406.365 538.691 402.511 536.116 399.265 532.87C396.019 529.624 393.444 525.77 391.688 521.529C389.931 517.287 389.027 512.742 389.027 508.151V460.751C399.889 459.338 410.927 460.257 421.405 463.446C431.884 466.634 441.562 472.02 449.796 479.243C458.03 486.467 464.629 495.362 469.154 505.336C473.68 515.311 476.028 526.135 476.041 537.088H476.041Z"/><path fill="#7F0000" d="M58.1214 453.919C59.5774 454.559 61.2279 454.596 62.711 454.021C64.194 453.446 65.3885 452.306 66.0324 450.852L112.712 345.058C113.78 342.637 114.107 339.953 113.65 337.347C113.193 334.74 111.973 332.328 110.145 330.414C108.318 328.501 105.963 327.172 103.38 326.597C100.797 326.022 98.1016 326.225 95.6343 327.182H95.6342C92.7836 328.27 90.3983 330.313 88.884 332.962C88.6432 333.381 88.4247 333.813 88.2296 334.255L41.5503 440.049C41.2322 440.77 41.0591 441.547 41.0411 442.334C41.0231 443.122 41.1604 443.906 41.4453 444.64C41.7301 445.375 42.1569 446.046 42.7012 446.616C43.2455 447.186 43.8968 447.643 44.6177 447.961L58.1214 453.919Z"/><path fill="#2F2E41" d="M110.795 388.491L64.6235 378.23L76.0515 347.998C77.9983 340.609 82.529 334.162 88.8218 329.827C95.1146 325.492 102.753 323.556 110.351 324.37L110.795 324.42L110.795 388.491Z"/><path fill="#7F0000" d="M204.055 455.432C202.697 455.43 201.369 455.034 200.231 454.293C199.093 453.551 198.194 452.496 197.643 451.255L150.964 345.461C149.479 342.095 149.341 338.288 150.578 334.823C151.815 331.359 154.333 328.5 157.614 326.835C160.894 325.17 164.688 324.825 168.215 325.873C171.742 326.92 174.733 329.279 176.573 332.464V332.464C176.832 332.914 177.067 333.377 177.276 333.852L223.955 439.646C224.705 441.344 224.749 443.271 224.077 445.002C223.406 446.733 222.075 448.126 220.377 448.876L206.415 455.035L206.408 455.02C205.653 455.292 204.857 455.432 204.055 455.432Z"/><path fill="#7F0000" d="M139.485 419.103C137.895 419.105 136.37 419.737 135.245 420.862C134.12 421.987 133.487 423.512 133.485 425.103V548.117C133.487 549.708 134.12 551.233 135.245 552.358C136.37 553.482 137.895 554.115 139.485 554.117H154.245C155.836 554.115 157.361 553.482 158.486 552.358C159.611 551.233 160.243 549.708 160.245 548.117V425.103C160.243 423.512 159.611 421.987 158.486 420.862C157.361 419.737 155.836 419.105 154.245 419.103H139.485Z"/><path fill="#7F0000" d="M110.293 419.103C108.702 419.105 107.177 419.737 106.052 420.862C104.928 421.987 104.295 423.512 104.293 425.103V548.117C104.295 549.708 104.928 551.233 106.052 552.358C107.177 553.482 108.702 554.115 110.293 554.117H125.053C126.644 554.115 128.169 553.482 129.294 552.358C130.418 551.233 131.051 549.708 131.053 548.117V425.103C131.051 423.512 130.418 421.987 129.294 420.862C128.169 419.737 126.644 419.105 125.053 419.103H110.293Z"/><path fill="#7F0000" d="M131.828 290.224C159.995 290.224 182.828 267.391 182.828 239.224C182.828 211.058 159.995 188.224 131.828 188.224C103.662 188.224 80.8281 211.058 80.8281 239.224C80.8281 267.391 103.662 290.224 131.828 290.224Z"/><path fill="#2F2E41" d="M148.8 260.633C152.106 260.541 156.22 260.426 159.39 258.111C160.334 257.393 161.109 256.478 161.662 255.429C162.215 254.38 162.532 253.223 162.59 252.038C162.647 251.197 162.509 250.353 162.187 249.574C161.864 248.794 161.365 248.1 160.73 247.545C159.074 246.146 156.657 245.818 154.051 246.584L156.751 226.858L154.769 226.587L151.596 249.777L153.251 249.017C155.169 248.137 157.802 247.69 159.439 249.072C159.84 249.434 160.154 249.883 160.353 250.385C160.553 250.888 160.635 251.429 160.591 251.968C160.543 252.849 160.305 253.71 159.894 254.491C159.483 255.273 158.909 255.956 158.21 256.496C155.743 258.298 152.464 258.53 148.744 258.634L148.8 260.633Z"/><path fill="#2F2E41" d="M177.321 228.559H166.55V230.559H177.321V228.559Z"/><path fill="#2F2E41" d="M143.321 228.559H132.55V230.559H143.321V228.559Z"/><path fill="#2F2E41" d="M182.362 456.053L164.006 322.053C163.809 320.616 163.098 319.299 162.005 318.346C160.912 317.393 159.511 316.867 158.061 316.867H144.205C144.263 316.537 144.293 316.203 144.295 315.867V310.867C144.295 309.276 143.663 307.75 142.538 306.625C141.413 305.5 139.887 304.867 138.295 304.867H126.295C124.704 304.867 123.178 305.5 122.053 306.625C120.927 307.75 120.295 309.276 120.295 310.867V315.867C120.297 316.203 120.327 316.537 120.385 316.867H106.53C105.079 316.867 103.678 317.393 102.585 318.346C101.492 319.299 100.782 320.616 100.585 322.053L82.2289 456.053C82.1126 456.902 82.1794 457.766 82.4249 458.586C82.6704 459.407 83.0887 460.166 83.6519 460.812C84.2151 461.457 84.91 461.975 85.6899 462.329C86.4697 462.684 87.3165 462.867 88.1732 462.867H176.417C177.274 462.867 178.121 462.684 178.901 462.329C179.681 461.975 180.375 461.457 180.939 460.812C181.502 460.166 181.92 459.407 182.166 458.587C182.411 457.766 182.478 456.902 182.362 456.053Z"/><path fill="#2F2E41" d="M153.795 388.491V324.42L154.24 324.37C161.847 323.557 169.494 325.5 175.791 329.845C182.087 334.19 186.617 340.65 188.556 348.051L199.967 378.23L153.795 388.491Z"/><path fill="#2F2E41" d="M129.26 291.815L93.9845 278.124C88.2162 275.885 82.4157 273.714 76.6779 271.398C74.2202 270.541 71.9562 269.207 70.0164 267.472C68.3276 265.684 67.1766 263.457 66.6953 261.045C65.4718 255.873 65.693 250.22 65.7803 244.942C65.848 239.169 66.3231 233.408 67.2021 227.702C68.7425 216.979 72.3602 206.659 77.8523 197.321C87.745 181.09 104.79 168.878 124.395 169.852C133.472 170.303 142.601 173.56 149.345 179.766C150.048 180.607 150.837 181.372 151.7 182.049C152.299 182.273 152.951 182.317 153.575 182.175C154.398 182.122 155.222 182.081 156.046 182.053C158.906 181.933 161.772 182.053 164.612 182.413C169.787 182.972 174.693 185.009 178.742 188.28C182.112 191.179 184.854 195.272 185.137 199.82C185.273 201.908 184.928 203.999 184.128 205.932C183.327 207.866 182.094 209.589 180.522 210.97C176.314 214.517 170.309 213.271 165.261 213.003L146.767 212.023L137.397 211.527C135.468 211.425 135.473 214.425 137.397 214.527L162.302 215.846C166.304 216.058 170.429 216.578 174.434 216.338C177.512 216.199 180.451 215.017 182.768 212.986C184.883 211.042 186.459 208.583 187.342 205.849C188.225 203.115 188.384 200.199 187.804 197.385C186.52 191.247 181.952 186.17 176.598 183.15C169.311 179.04 160.609 178.646 152.457 179.254L153.517 179.693C144.295 169.795 130.169 165.616 116.907 167.078C102.905 168.622 90.451 176.434 81.503 187.116C71.5266 199.025 66.0901 213.875 63.9765 229.145C62.8767 237.39 62.5146 245.716 62.8945 254.025C62.8789 257.69 63.5058 261.328 64.7468 264.776C66.1627 268.132 68.7229 270.877 71.9719 272.522C75.6969 274.321 79.5264 275.894 83.4398 277.233L96.436 282.278L121.964 292.186L128.462 294.708C130.263 295.407 131.043 292.508 129.26 291.815Z"/><path fill="#2F2E41" d="M73.7953 189.867C70.7297 189.867 67.7329 188.958 65.1839 187.255C62.635 185.552 60.6483 183.131 59.4752 180.299C58.302 177.467 57.995 174.35 58.5931 171.344C59.1912 168.337 60.6674 165.575 62.8351 163.407C65.0028 161.24 67.7647 159.763 70.7714 159.165C73.7781 158.567 76.8946 158.874 79.7269 160.047C82.5591 161.22 84.9799 163.207 86.6831 165.756C88.3862 168.305 89.2953 171.302 89.2953 174.367C89.2907 178.477 87.6562 182.417 84.7503 185.322C81.8445 188.228 77.9047 189.863 73.7953 189.867ZM73.7953 161.867C71.323 161.867 68.9063 162.601 66.8507 163.974C64.795 165.348 63.1929 167.3 62.2468 169.584C61.3007 171.868 61.0532 174.381 61.5355 176.806C62.0178 179.231 63.2083 181.458 64.9565 183.206C66.7046 184.954 68.9319 186.145 71.3567 186.627C73.7814 187.11 76.2948 186.862 78.5788 185.916C80.8629 184.97 82.8152 183.368 84.1887 181.312C85.5622 179.256 86.2953 176.84 86.2953 174.367C86.2916 171.053 84.9734 167.876 82.63 165.533C80.2866 163.189 77.1094 161.871 73.7953 161.867Z"/><path fill="#F0F0F0" d="M332.899 285.923L299.35 260.263L273.691 293.812L307.24 319.471L332.899 285.923Z"/><path fill="#F0F0F0" d="M143.295 56.8674C148.596 56.8633 153.824 58.1004 158.561 60.4798C163.298 62.8592 167.411 66.3147 170.573 70.5696L190.162 44.9559L131.384 0L86.4281 58.779L111.762 78.1548C114.297 71.8673 118.654 66.4811 124.272 62.688C129.891 58.8948 136.516 56.8679 143.295 56.8674Z"/><path fill="#3F3D56" d="M707 555.867H1C0.734784 555.867 0.480429 555.762 0.292892 555.575C0.105356 555.387 0 555.133 0 554.867C0 554.602 0.105356 554.348 0.292892 554.16C0.480429 553.973 0.734784 553.867 1 553.867H707C707.265 553.867 707.52 553.973 707.707 554.16C707.895 554.348 708 554.602 708 554.867C708 555.133 707.895 555.387 707.707 555.575C707.52 555.762 707.265 555.867 707 555.867Z"/><path fill="#7F0000" d="M534.687 389.937H462.825C460.174 389.934 457.632 388.879 455.758 387.005C453.883 385.13 452.828 382.588 452.825 379.937V374.959C452.828 372.308 453.883 369.766 455.758 367.891C457.632 366.017 460.174 364.962 462.825 364.959H534.687C537.339 364.962 539.88 366.017 541.755 367.891C543.63 369.766 544.684 372.308 544.687 374.959V379.937C544.684 382.588 543.63 385.13 541.755 387.005C539.88 388.879 537.339 389.934 534.687 389.937Z"/><path fill="#3F3D56" d="M542.259 380.341H470.397C467.613 380.338 464.944 379.231 462.976 377.262C461.008 375.294 459.9 372.625 459.897 369.841V364.864C459.9 362.08 461.008 359.411 462.976 357.442C464.944 355.474 467.613 354.367 470.397 354.364H542.259C545.043 354.367 547.712 355.474 549.68 357.442C551.649 359.411 552.756 362.08 552.759 364.864V369.841C552.756 372.625 551.649 375.294 549.68 377.262C547.712 379.231 545.043 380.338 542.259 380.341ZM470.397 356.364C468.144 356.366 465.983 357.262 464.389 358.856C462.796 360.449 461.9 362.61 461.897 364.864V369.841C461.9 372.095 462.796 374.255 464.389 375.849C465.983 377.442 468.144 378.339 470.397 378.341H542.259C544.513 378.339 546.674 377.442 548.267 375.849C549.861 374.255 550.757 372.095 550.759 369.841V364.864C550.757 362.61 549.861 360.449 548.267 358.856C546.674 357.262 544.513 356.366 542.259 356.364H470.397Z"/></g><defs><clipPath id="clip0_7_3"><rect width="708" height="555.867" fill="#fff"/></clipPath></defs></svg>